<svg xmlns="http://www.w3.org/2000/svg" viewBox="0 0 900 700" font-family="'Segoe UI', Arial, sans-serif">
  <rect width="100%" height="100%" fill="white"/>

  <!-- Title -->
  <text x="450" y="32" text-anchor="middle" fill="#1a1a1a" font-size="24" font-weight="bold">Counting Sort &#x2014; Complete Walkthrough</text>
  <text x="450" y="54" text-anchor="middle" fill="#777" font-size="13">Count occurrences, then place directly. No comparisons needed.</text>

  <!-- Legend -->
  <rect x="660" y="70" width="220" height="60" rx="8" fill="#f8f9fa" stroke="#ddd" stroke-width="1"/>
  <rect x="675" y="82" width="14" height="14" rx="3" fill="#3498db"/>
  <text x="695" y="94" fill="#333" font-size="11">Input data</text>
  <rect x="675" y="102" width="14" height="14" rx="3" fill="#27ae60"/>
  <text x="695" y="114" fill="#333" font-size="11">Sorted output</text>
  <text x="790" y="94" fill="#333" font-size="11" font-weight="bold">Time: O(n+k)</text>
  <text x="790" y="114" fill="#333" font-size="11" font-weight="bold">Space: O(k)</text>

  <!-- ===== STEP 0: Input ===== -->
  <text x="30" y="90" fill="#1a1a1a" font-size="15" font-weight="bold">Input:</text>
  <rect x="100" y="72" width="42" height="28" rx="4" fill="#3498db"/><text x="121" y="91" text-anchor="middle" fill="#fff" font-size="13" font-weight="bold">14</text>
  <rect x="148" y="72" width="42" height="28" rx="4" fill="#3498db"/><text x="169" y="91" text-anchor="middle" fill="#fff" font-size="13" font-weight="bold">12</text>
  <rect x="196" y="72" width="42" height="28" rx="4" fill="#3498db"/><text x="217" y="91" text-anchor="middle" fill="#fff" font-size="13" font-weight="bold">17</text>
  <rect x="244" y="72" width="42" height="28" rx="4" fill="#3498db"/><text x="265" y="91" text-anchor="middle" fill="#fff" font-size="13" font-weight="bold">11</text>
  <rect x="292" y="72" width="42" height="28" rx="4" fill="#3498db"/><text x="313" y="91" text-anchor="middle" fill="#fff" font-size="13" font-weight="bold">14</text>
  <rect x="340" y="72" width="42" height="28" rx="4" fill="#3498db"/><text x="361" y="91" text-anchor="middle" fill="#fff" font-size="13" font-weight="bold">12</text>

  <!-- min/max/k callout -->
  <rect x="410" y="72" width="230" height="28" rx="6" fill="#e3f2fd" stroke="#1565c0" stroke-width="1"/>
  <text x="420" y="91" fill="#0d47a1" font-size="12">min=<tspan font-weight="bold">11</tspan>, max=<tspan font-weight="bold">17</tspan>, k = 17-11+1 = <tspan font-weight="bold" fill="#c62828">7</tspan></text>

  <!-- ===== STEP 1: Build count array ===== -->
  <rect x="20" y="120" width="860" height="160" rx="8" fill="#fff" stroke="#2e7d32" stroke-width="1.5"/>
  <text x="35" y="142" fill="#2e7d32" font-size="14" font-weight="bold">Step 1: Build count array</text>
  <text x="250" y="142" fill="#888" font-size="11">Create array of size k = (17 - 11 + 1) = 7, initialized to 0</text>

  <!-- Count array labels (values 11-17) -->
  <text x="35" y="172" fill="#555" font-size="11">Value:</text>
  <text x="121" y="172" text-anchor="middle" fill="#555" font-size="11">11</text>
  <text x="169" y="172" text-anchor="middle" fill="#555" font-size="11">12</text>
  <text x="217" y="172" text-anchor="middle" fill="#555" font-size="11">13</text>
  <text x="265" y="172" text-anchor="middle" fill="#555" font-size="11">14</text>
  <text x="313" y="172" text-anchor="middle" fill="#555" font-size="11">15</text>
  <text x="361" y="172" text-anchor="middle" fill="#555" font-size="11">16</text>
  <text x="409" y="172" text-anchor="middle" fill="#555" font-size="11">17</text>

  <!-- Index labels -->
  <text x="35" y="192" fill="#aaa" font-size="10">Index:</text>
  <text x="121" y="192" text-anchor="middle" fill="#aaa" font-size="10">0</text>
  <text x="169" y="192" text-anchor="middle" fill="#aaa" font-size="10">1</text>
  <text x="217" y="192" text-anchor="middle" fill="#aaa" font-size="10">2</text>
  <text x="265" y="192" text-anchor="middle" fill="#aaa" font-size="10">3</text>
  <text x="313" y="192" text-anchor="middle" fill="#aaa" font-size="10">4</text>
  <text x="361" y="192" text-anchor="middle" fill="#aaa" font-size="10">5</text>
  <text x="409" y="192" text-anchor="middle" fill="#aaa" font-size="10">6</text>

  <!-- Count array after tallying -->
  <text x="35" y="222" fill="#555" font-size="11">Count:</text>
  <rect x="100" y="202" width="42" height="28" rx="4" fill="#e8f5e9" stroke="#2e7d32" stroke-width="1.5"/>
  <text x="121" y="221" text-anchor="middle" fill="#2e7d32" font-size="13" font-weight="bold">1</text>
  <rect x="148" y="202" width="42" height="28" rx="4" fill="#e8f5e9" stroke="#2e7d32" stroke-width="1.5"/>
  <text x="169" y="221" text-anchor="middle" fill="#2e7d32" font-size="13" font-weight="bold">2</text>
  <rect x="196" y="202" width="42" height="28" rx="4" fill="#e8f5e9" stroke="#2e7d32" stroke-width="1.5"/>
  <text x="217" y="221" text-anchor="middle" fill="#2e7d32" font-size="13" font-weight="bold">0</text>
  <rect x="244" y="202" width="42" height="28" rx="4" fill="#e8f5e9" stroke="#2e7d32" stroke-width="1.5"/>
  <text x="265" y="221" text-anchor="middle" fill="#2e7d32" font-size="13" font-weight="bold">2</text>
  <rect x="292" y="202" width="42" height="28" rx="4" fill="#e8f5e9" stroke="#2e7d32" stroke-width="1.5"/>
  <text x="313" y="221" text-anchor="middle" fill="#2e7d32" font-size="13" font-weight="bold">0</text>
  <rect x="340" y="202" width="42" height="28" rx="4" fill="#e8f5e9" stroke="#2e7d32" stroke-width="1.5"/>
  <text x="361" y="221" text-anchor="middle" fill="#2e7d32" font-size="13" font-weight="bold">0</text>
  <rect x="388" y="202" width="42" height="28" rx="4" fill="#e8f5e9" stroke="#2e7d32" stroke-width="1.5"/>
  <text x="409" y="221" text-anchor="middle" fill="#2e7d32" font-size="13" font-weight="bold">1</text>

  <text x="460" y="218" fill="#e65100" font-size="12" font-weight="bold">&#x2190; one 11, two 12s, zero 13s, two 14s, zero 15s/16s, one 17</text>

  <!-- Tally explanation -->
  <text x="35" y="258" fill="#888" font-size="11">Scan input: 14&#x2192;count[3]++, 12&#x2192;count[1]++, 17&#x2192;count[6]++, 11&#x2192;count[0]++, 14&#x2192;count[3]++, 12&#x2192;count[1]++</text>
  <text x="35" y="274" fill="#8e44ad" font-size="11" font-weight="bold">Index formula: count[value - min] = count[14 - 11] = count[3]</text>

  <!-- ===== STEP 2: Place elements ===== -->
  <rect x="20" y="294" width="860" height="160" rx="8" fill="#fff" stroke="#e65100" stroke-width="1.5"/>
  <text x="35" y="316" fill="#e65100" font-size="14" font-weight="bold">Step 2: Place elements using counts</text>
  <text x="330" y="316" fill="#888" font-size="11">Walk the count array left to right, placing each value count[i] times</text>

  <text x="35" y="344" fill="#555" font-size="12">count[0]=1 &#x2192; place one 11</text>
  <rect x="100" y="350" width="42" height="28" rx="4" fill="#27ae60"/><text x="121" y="369" text-anchor="middle" fill="#fff" font-size="13" font-weight="bold">11</text>

  <text x="35" y="390" fill="#555" font-size="12">count[1]=2 &#x2192; place two 12s</text>
  <rect x="100" y="396" width="42" height="28" rx="4" fill="#27ae60"/><text x="121" y="415" text-anchor="middle" fill="#fff" font-size="13" font-weight="bold">11</text>
  <rect x="148" y="396" width="42" height="28" rx="4" fill="#27ae60"/><text x="169" y="415" text-anchor="middle" fill="#fff" font-size="13" font-weight="bold">12</text>
  <rect x="196" y="396" width="42" height="28" rx="4" fill="#27ae60"/><text x="217" y="415" text-anchor="middle" fill="#fff" font-size="13" font-weight="bold">12</text>

  <text x="35" y="436" fill="#555" font-size="12">count[2]=0 &#x2192; skip, count[3]=2 &#x2192; place two 14s, count[4,5]=0 &#x2192; skip, count[6]=1 &#x2192; place one 17</text>

  <!-- ===== STEP 3: Output ===== -->
  <rect x="20" y="468" width="860" height="70" rx="8" fill="#fff" stroke="#27ae60" stroke-width="2"/>
  <text x="35" y="492" fill="#27ae60" font-size="14" font-weight="bold">Result:</text>
  <rect x="100" y="478" width="42" height="28" rx="4" fill="#27ae60"/><text x="121" y="497" text-anchor="middle" fill="#fff" font-size="13" font-weight="bold">11</text>
  <rect x="148" y="478" width="42" height="28" rx="4" fill="#27ae60"/><text x="169" y="497" text-anchor="middle" fill="#fff" font-size="13" font-weight="bold">12</text>
  <rect x="196" y="478" width="42" height="28" rx="4" fill="#27ae60"/><text x="217" y="497" text-anchor="middle" fill="#fff" font-size="13" font-weight="bold">12</text>
  <rect x="244" y="478" width="42" height="28" rx="4" fill="#27ae60"/><text x="265" y="497" text-anchor="middle" fill="#fff" font-size="13" font-weight="bold">14</text>
  <rect x="292" y="478" width="42" height="28" rx="4" fill="#27ae60"/><text x="313" y="497" text-anchor="middle" fill="#fff" font-size="13" font-weight="bold">14</text>
  <rect x="340" y="478" width="42" height="28" rx="4" fill="#27ae60"/><text x="361" y="497" text-anchor="middle" fill="#fff" font-size="13" font-weight="bold">17</text>
  <text x="400" y="497" fill="#27ae60" font-size="12" font-weight="bold">&#x2190; sorted! Zero comparisons.</text>

  <!-- ===== KEY TAKEAWAYS ===== -->
  <rect x="20" y="556" width="860" height="130" rx="10" fill="#f4ecf7" stroke="#6a1b9a" stroke-width="1.5"/>
  <text x="450" y="582" text-anchor="middle" fill="#1a1a2e" font-size="16" font-weight="bold">Key Takeaways</text>
  <text x="40" y="606" fill="#333" font-size="12">&#x2022; No element-to-element comparisons &#x2014; just count and place. That&#x2019;s how it beats the O(n log n) lower bound.</text>
  <text x="40" y="626" fill="#333" font-size="12">&#x2022; Time is O(n + k): one pass to count (O(n)), one pass to place (O(k)). Here n=6, k=7. When k &#x226A; n, this is essentially O(n).</text>
  <text x="40" y="646" fill="#333" font-size="12">&#x2022; Space is O(k) for the count array. k depends on the <tspan font-weight="bold">range</tspan> (max-min+1), not max itself. Here k=7, not 17.</text>
  <text x="40" y="666" fill="#333" font-size="12">&#x2022; <tspan font-weight="bold">Stable</tspan> &#x2014; equal elements maintain their relative order (important when used as a subroutine in radix sort).</text>
</svg>
